HIERARCHY
ROOT Root
{
  OFFSET 0.0 0.0 0.0
  CHANNELS 6 Xposition Yposition Zposition Zrotation Yrotation Xrotation
  JOINT Hips
  {
    OFFSET 0.0 100.0 0.0
    CHANNELS 6 Xposition Yposition Zposition Zrotation Yrotation Xrotation
    JOINT Spine1
    {
      OFFSET 5.003913 -0.037094 -0.013727
      CHANNELS 3 Zrotation Yrotation Xrotation
      JOINT Spine2
      {
        OFFSET 7.125363 -1e-06 0.0
        CHANNELS 3 Zrotation Yrotation Xrotation
        JOINT Chest
        {
          OFFSET 7.594027 1e-06 0.0
          CHANNELS 3 Zrotation Yrotation Xrotation
          JOINT Neck1
          {
            OFFSET 26.313086 -0.460272 -0.181672
            CHANNELS 3 Zrotation Yrotation Xrotation
            JOINT Neck2
            {
              OFFSET 8.045911 0.0 0.0
              CHANNELS 3 Zrotation Yrotation Xrotation
              JOINT Head
              {
                OFFSET 6.432774 0.0 0.0
                CHANNELS 3 Zrotation Yrotation Xrotation
                JOINT HeadEnd
                {
                  OFFSET 16.169773 0.06451 0.00362
                  CHANNELS 3 Zrotation Yrotation Xrotation
                }
                JOINT Jaw
                {
                  OFFSET 0.108741 3.12938 0.002639
                  CHANNELS 3 Zrotation Yrotation Xrotation
                }
                JOINT LeftEye
                {
                  OFFSET 4.45173 8.166359 3.206392
                  CHANNELS 3 Zrotation Yrotation Xrotation
                }
                JOINT RightEye
                {
                  OFFSET 4.436895 8.135758 -3.222429
                  CHANNELS 3 Zrotation Yrotation Xrotation
                }
              }
            }
          }
          JOINT LeftShoulder
          {
            OFFSET 23.218927 5.195579 1.621656
            CHANNELS 3 Zrotation Yrotation Xrotation
            JOINT LeftArm
            {
              OFFSET 15.902118 2e-06 -2e-06
              CHANNELS 3 Zrotation Yrotation Xrotation
              JOINT LeftForeArm
              {
                OFFSET 28.739307 0.0 -1e-06
                CHANNELS 3 Zrotation Yrotation Xrotation
                JOINT LeftHand
                {
                  OFFSET 27.093981 -4e-06 0.0
                  CHANNELS 3 Zrotation Yrotation Xrotation
                  JOINT LeftHandThumb1
                  {
                    OFFSET 2.276781 3.380274 0.83384
                    CHANNELS 3 Zrotation Yrotation Xrotation
                    JOINT LeftHandThumb2
                    {
                      OFFSET 4.705309 -1e-06 -1e-06
                      CHANNELS 3 Zrotation Yrotation Xrotation
                      JOINT LeftHandThumb3
                      {
                        OFFSET 2.798515 0.0 3e-06
                        CHANNELS 3 Zrotation Yrotation Xrotation
                        JOINT LeftHandThumbEnd
                        {
                          OFFSET 3.180793 4e-06 -4e-06
                          CHANNELS 3 Zrotation Yrotation Xrotation
                        }
                      }
                    }
                  }
                  JOINT LeftHandIndex1
                  {
                    OFFSET 3.247786 2.352677 0.137192
                    CHANNELS 3 Zrotation Yrotation Xrotation
                    JOINT LeftHandIndex2
                    {
                      OFFSET 6.367095 1e-06 0.0
                      CHANNELS 3 Zrotation Yrotation Xrotation
                      JOINT LeftHandIndex3
                      {
                        OFFSET 3.662364 0.0 0.0
                        CHANNELS 3 Zrotation Yrotation Xrotation
                        JOINT LeftHandIndex4
                        {
                          OFFSET 2.329242 4e-06 -4e-06
                          CHANNELS 3 Zrotation Yrotation Xrotation
                          JOINT LeftHandIndexEnd
                          {
                            OFFSET 2.767823 1e-06 0.0
                            CHANNELS 3 Zrotation Yrotation Xrotation
                          }
                        }
                      }
                    }
                  }
                  JOINT LeftHandMiddle1
                  {
                    OFFSET 3.163612 0.945023 -0.406112
                    CHANNELS 3 Zrotation Yrotation Xrotation
                    JOINT LeftHandMiddle2
                    {
                      OFFSET 6.276789 3e-06 0.0
                      CHANNELS 3 Zrotation Yrotation Xrotation
                      JOINT LeftHandMiddle3
                      {
                        OFFSET 4.35652 -1e-06 4e-06
                        CHANNELS 3 Zrotation Yrotation Xrotation
                        JOINT LeftHandMiddle4
                        {
                          OFFSET 2.996877 0.0 8e-06
                          CHANNELS 3 Zrotation Yrotation Xrotation
                          JOINT LeftHandMiddleEnd
                          {
                            OFFSET 2.323256 3e-06 -4e-06
                            CHANNELS 3 Zrotation Yrotation Xrotation
                          }
                        }
                      }
                    }
                  }
                  JOINT LeftHandRing1
                  {
                    OFFSET 2.882606 -0.309162 0.107445
                    CHANNELS 3 Zrotation Yrotation Xrotation
                    JOINT LeftHandRing2
                    {
                      OFFSET 6.033198 0.0 4e-06
                      CHANNELS 3 Zrotation Yrotation Xrotation
                      JOINT LeftHandRing3
                      {
                        OFFSET 4.350578 3e-06 0.0
                        CHANNELS 3 Zrotation Yrotation Xrotation
                        JOINT LeftHandRing4
                        {
                          OFFSET 2.651321 2e-06 -7e-06
                          CHANNELS 3 Zrotation Yrotation Xrotation
                          JOINT LeftHandRingEnd
                          {
                            OFFSET 1.937663 1e-06 -4e-06
                            CHANNELS 3 Zrotation Yrotation Xrotation
                          }
                        }
                      }
                    }
                  }
                  JOINT LeftHandPinky1
                  {
                    OFFSET 2.865315 -1.525436 0.575687
                    CHANNELS 3 Zrotation Yrotation Xrotation
                    JOINT LeftHandPinky2
                    {
                      OFFSET 5.54936 1e-06 -8e-06
                      CHANNELS 3 Zrotation Yrotation Xrotation
                      JOINT LeftHandPinky3
                      {
                        OFFSET 3.070974 0.0 -4e-06
                        CHANNELS 3 Zrotation Yrotation Xrotation
                        JOINT LeftHandPinky4
                        {
                          OFFSET 1.549672 1e-06 0.0
                          CHANNELS 3 Zrotation Yrotation Xrotation
                          JOINT LeftHandPinkyEnd
                          {
                            OFFSET 1.952123 0.0 0.0
                            CHANNELS 3 Zrotation Yrotation Xrotation
                          }
                        }
                      }
                    }
                  }
                }
              }
            }
          }
          JOINT RightShoulder
          {
            OFFSET 23.161716 5.296122 -1.380114
            CHANNELS 3 Zrotation Yrotation Xrotation
            JOINT RightArm
            {
              OFFSET -16.027195 -2e-06 1.1e-05
              CHANNELS 3 Zrotation Yrotation Xrotation
              JOINT RightForeArm
              {
                OFFSET -28.736639 4e-06 2e-06
                CHANNELS 3 Zrotation Yrotation Xrotation
                JOINT RightHand
                {
                  OFFSET -27.133619 6e-06 0.0
                  CHANNELS 3 Zrotation Yrotation Xrotation
                  JOINT RightHandThumb1
                  {
                    OFFSET -2.274328 -3.351035 -0.83067
                    CHANNELS 3 Zrotation Yrotation Xrotation
                    JOINT RightHandThumb2
                    {
                      OFFSET -4.703594 -3e-06 2e-06
                      CHANNELS 3 Zrotation Yrotation Xrotation
                      JOINT RightHandThumb3
                      {
                        OFFSET -2.794935 -4e-06 -3e-06
                        CHANNELS 3 Zrotation Yrotation Xrotation
                        JOINT RightHandThumbEnd
                        {
                          OFFSET -3.183852 4e-06 1e-06
                          CHANNELS 3 Zrotation Yrotation Xrotation
                        }
                      }
                    }
                  }
                  JOINT RightHandIndex1
                  {
                    OFFSET -3.253496 -2.33755 -0.127667
                    CHANNELS 3 Zrotation Yrotation Xrotation
                    JOINT RightHandIndex2
                    {
                      OFFSET -6.344434 0.0 0.0
                      CHANNELS 3 Zrotation Yrotation Xrotation
                      JOINT RightHandIndex3
                      {
                        OFFSET -3.654871 0.0 -8e-06
                        CHANNELS 3 Zrotation Yrotation Xrotation
                        JOINT RightHandIndex4
                        {
                          OFFSET -2.327586 -1e-06 0.0
                          CHANNELS 3 Zrotation Yrotation Xrotation
                          JOINT RightHandIndexEnd
                          {
                            OFFSET -2.770001 3e-06 8e-06
                            CHANNELS 3 Zrotation Yrotation Xrotation
                          }
                        }
                      }
                    }
                  }
                  JOINT RightHandMiddle1
                  {
                    OFFSET -3.168223 -0.944764 0.411762
                    CHANNELS 3 Zrotation Yrotation Xrotation
                    JOINT RightHandMiddle2
                    {
                      OFFSET -6.266691 -1e-06 -4e-06
                      CHANNELS 3 Zrotation Yrotation Xrotation
                      JOINT RightHandMiddle3
                      {
                        OFFSET -4.348901 0.0 0.0
                        CHANNELS 3 Zrotation Yrotation Xrotation
                        JOINT RightHandMiddle4
                        {
                          OFFSET -3.00024 2e-06 -4e-06
                          CHANNELS 3 Zrotation Yrotation Xrotation
                          JOINT RightHandMiddleEnd
                          {
                            OFFSET -2.321477 -4e-06 -4e-06
                            CHANNELS 3 Zrotation Yrotation Xrotation
                          }
                        }
                      }
                    }
                  }
                  JOINT RightHandRing1
                  {
                    OFFSET -2.885654 0.293261 -0.119232
                    CHANNELS 3 Zrotation Yrotation Xrotation
                    JOINT RightHandRing2
                    {
                      OFFSET -6.032835 -1e-06 -4e-06
                      CHANNELS 3 Zrotation Yrotation Xrotation
                      JOINT RightHandRing3
                      {
                        OFFSET -4.33881 0.0 -4e-06
                        CHANNELS 3 Zrotation Yrotation Xrotation
                        JOINT RightHandRing4
                        {
                          OFFSET -2.654903 -4e-06 -4e-06
                          CHANNELS 3 Zrotation Yrotation Xrotation
                          JOINT RightHandRingEnd
                          {
                            OFFSET -1.935122 0.0 4e-06
                            CHANNELS 3 Zrotation Yrotation Xrotation
                          }
                        }
                      }
                    }
                  }
                  JOINT RightHandPinky1
                  {
                    OFFSET -2.866241 1.503904 -0.60527
                    CHANNELS 3 Zrotation Yrotation Xrotation
                    JOINT RightHandPinky2
                    {
                      OFFSET -5.553177 -2e-06 0.0
                      CHANNELS 3 Zrotation Yrotation Xrotation
                      JOINT RightHandPinky3
                      {
                        OFFSET -3.062664 -1e-06 -4e-06
                        CHANNELS 3 Zrotation Yrotation Xrotation
                        JOINT RightHandPinky4
                        {
                          OFFSET -1.546529 2e-06 4e-06
                          CHANNELS 3 Zrotation Yrotation Xrotation
                          JOINT RightHandPinkyEnd
                          {
                            OFFSET -1.952341 0.0 -4e-06
                            CHANNELS 3 Zrotation Yrotation Xrotation
                          }
                        }
                      }
                    }
                  }
                }
              }
            }
          }
        }
      }
    }
    JOINT LeftLeg
    {
      OFFSET -8.443107 2.567604 10.043214
      CHANNELS 3 Zrotation Yrotation Xrotation
      JOINT LeftShin
      {
        OFFSET 43.229198 1e-06 -1e-06
        CHANNELS 3 Zrotation Yrotation Xrotation
        JOINT LeftFoot
        {
          OFFSET 42.298611 1e-06 1e-06
          CHANNELS 3 Zrotation Yrotation Xrotation
          JOINT LeftToeBase
          {
            OFFSET 14.165858 1e-06 0.0
            CHANNELS 3 Zrotation Yrotation Xrotation
            JOINT LeftToeEnd
            {
              OFFSET 6.7141 -0.234461 0.0
              CHANNELS 3 Zrotation Yrotation Xrotation
            }
          }
        }
      }
    }
    JOINT RightLeg
    {
      OFFSET -8.303923 2.592729 -10.047278
      CHANNELS 3 Zrotation Yrotation Xrotation
      JOINT RightShin
      {
        OFFSET -43.369682 0.0 1e-06
        CHANNELS 3 Zrotation Yrotation Xrotation
        JOINT RightFoot
        {
          OFFSET -42.260784 4e-06 2e-06
          CHANNELS 3 Zrotation Yrotation Xrotation
          JOINT RightToeBase
          {
            OFFSET -14.222245 -2e-06 -1e-06
            CHANNELS 3 Zrotation Yrotation Xrotation
            JOINT RightToeEnd
            {
              OFFSET -6.660062 0.232574 -2e-06
              CHANNELS 3 Zrotation Yrotation Xrotation
            }
          }
        }
      }
    }
  }
}
MOTION
Frames: 4
Frame Time: 0.03333333333333333
0.0 0.0 0.0 0.0 -0.0 0.0 0.180586 99.511612 2.899607 89.355659 -2.010365 79.341148 -4.633673 -1.130439 -0.794199 -12.763053 -1.279904 -0.619255 9.873071 1.65695 -2.072998 -14.821823 17.533796 -4.698326 -2.590536 1.594328 2.73105 -18.381344 6.370779 -7.445888 7e-06 0.0 1e-06 -0.132774 -0.048446 0.303028 0.474422 0.107381 0.570585 0.602448 -0.205832 0.011847 -14.556264 -53.471939 17.607933 -13.403461 39.382629 -81.959343 16.205334 -5.240491 -2.947409 -23.702707 28.138365 -54.044884 17.636625 -26.322737 52.411194 -19.466654 -14.395594 29.410385 1e-06 -8.774819 -1e-06 17.187765 -18.912809 5.106065 -0.609777 -1.795652 -3.889329 -4.807087 -11.04681 -2.937848 3e-06 -20.976015 2e-06 -5.01997 -25.033556 -4.031882 6e-06 -0.0 -0.0 -10.634531 -5.68697 -3.565586 10.573271 -17.922951 -3.113899 4e-06 -13.821205 1e-06 -0.501777 -31.181498 -4.027016 -11.977595 -57.804985 8.110434 -13.982711 -7.150197 -2.875046 13.772724 -8.401492 -3.218239 0.347732 -34.211552 0.771656 -0.96303 -17.73337 2.621019 -1e-06 1e-06 0.0 -17.346413 -20.095215 -4.201781 21.757551 -1.638372 3.866427 2e-06 -6.338821 3e-06 -1.697588 -22.591736 -6.194005 0.0 -4e-06 -3e-06 174.272095 -62.476273 7.989544 -10.567379 19.361198 -75.95015 42.804947 1.458077 -2.495787 -26.626598 30.422316 -41.135986 22.182112 -20.375898 49.933315 -16.701817 -16.743528 28.476532 -0.0 -12.690601 -0.0 16.387995 -16.871767 2.948568 -0.105919 -1.513859 -4.275882 -5.039041 -5.612872 -2.953556 4e-06 -11.020528 -1e-06 -6.111299 -15.895341 -3.840469 0.0 -0.0 -1e-06 -10.28337 -5.680287 -4.341839 11.028296 -11.302411 -2.372634 -1.384269 -14.238586 -6.32012 -0.62544 -26.924198 -3.8276 -6.060681 -49.699253 -2.72955 -13.708524 -7.363477 -3.720939 18.14115 -14.052744 -3.242676 5e-06 -18.787271 -1e-06 -0.429712 -8.456045 2.555504 0.0 0.0 0.0 -15.923534 -20.09449 -5.473581 30.419218 -7.190826 1.735922 1e-06 -8.162929 -1e-06 -1.861902 -22.861475 -6.167943 0.0 -2e-06 -1e-06 -172.266449 1.585625 -26.679832 5.550754 -0.105638 0.307843 -82.35231 -5.694379 -5.659316 -3.563741 1.707776 2.26365 -1.0 -0.0 -0.0 3.822849 -5.253823 3.194378 6.114638 0.00614 -0.026323 -80.830223 7.782448 -3.91478 -3.391746 0.752928 1.748241 -1.000002 0.0 0.0 
0.0 0.0 0.0 0.0 -0.0 0.0 0.400197 99.507034 2.930834 89.444603 -2.272347 79.233788 -4.67172 -1.093621 -0.814739 -12.803811 -1.230032 -0.562093 9.755245 1.819845 -1.963634 -14.405779 17.828814 -4.65787 -2.598069 1.486472 2.788623 -17.600126 6.131429 -6.962016 5e-06 0.0 0.0 -0.141924 -0.04551 0.311027 0.465688 0.120533 0.573009 0.585632 -0.212358 0.025508 -14.382698 -52.722134 17.21438 -13.905764 38.023903 -81.264626 16.196238 -4.795694 -2.785003 -22.856461 27.903383 -51.237015 17.636629 -26.322727 52.411179 -19.46666 -14.395596 29.410385 1e-06 -8.774822 -4e-06 17.331579 -18.872635 5.120064 -0.609778 -1.795651 -3.889326 -4.807089 -11.046809 -2.937849 4e-06 -20.976015 -1e-06 -5.01997 -25.033558 -4.031879 7e-06 0.0 -3e-06 -10.634533 -5.686969 -3.565587 10.573272 -17.922947 -3.113899 3e-06 -13.821206 1e-06 -0.501779 -31.181505 -4.027014 -11.972059 -57.905605 8.137142 -13.982713 -7.150196 -2.875041 13.772727 -8.401492 -3.218241 0.347734 -34.211555 0.771655 -0.963027 -17.73337 2.621017 -1e-06 1e-06 1e-06 -17.346418 -20.095217 -4.201779 21.757555 -1.638374 3.866425 1e-06 -6.338822 0.0 -1.697588 -22.591745 -6.194006 -0.0 -4e-06 -2e-06 174.889633 -61.697224 6.978723 -10.929351 18.072334 -76.020905 42.279934 1.651954 -2.02653 -26.825285 29.784964 -42.509621 22.182114 -20.375895 49.933319 -16.701813 -16.74353 28.47653 -1e-06 -12.690601 -1e-06 16.44408 -16.978132 2.902018 -0.105919 -1.513857 -4.275881 -5.039041 -5.612873 -2.953556 3e-06 -11.020527 -2e-06 -6.111298 -15.895338 -3.840469 1e-06 -0.0 0.0 -10.283369 -5.680287 -4.341839 11.028293 -11.302406 -2.372633 -1.384269 -14.238583 -6.32012 -0.625439 -26.924191 -3.827601 -6.098089 -49.955292 -2.697999 -13.708524 -7.363478 -3.720938 18.141148 -14.052737 -3.242674 5e-06 -18.787271 -2e-06 -0.429712 -8.456045 2.555503 0.0 0.0 -0.0 -15.923536 -20.094484 -5.473582 30.419214 -7.190826 1.735924 1e-06 -8.162929 -1e-06 -1.861902 -22.861473 -6.167942 -0.0 -3e-06 -1e-06 -172.539001 1.780645 -26.672016 5.549338 -0.113372 0.302162 -82.400887 -5.799591 -5.631603 -3.559551 1.671983 2.256165 -0.999998 -1e-06 -0.0 3.517218 -5.456708 3.169759 6.141519 0.000305 -0.020312 -80.847137 7.958495 -3.970027 -3.410006 0.768936 1.75446 -1.000002 -0.0 0.0 
0.0 0.0 0.0 0.0 -0.0 0.0 0.666088 99.517509 2.95908 89.551254 -2.563029 79.079796 -4.704666 -1.0489 -0.822328 -12.844484 -1.182856 -0.492264 9.608431 2.035003 -1.822785 -13.968547 18.107761 -4.591881 -2.604009 1.362684 2.855119 -16.919209 5.790798 -6.399476 6e-06 1e-06 0.0 -0.149608 -0.051309 0.306842 0.453589 0.124443 0.56048 0.560835 -0.2265 0.028826 -14.224487 -51.918991 16.820364 -14.607068 36.51207 -80.529114 16.021147 -4.216864 -2.543481 -21.785908 27.72237 -47.962708 17.636627 -26.322741 52.411213 -19.466669 -14.395604 29.410402 -2e-06 -8.774824 -4e-06 17.465126 -18.754875 5.141224 -0.609776 -1.795657 -3.88933 -4.807089 -11.046809 -2.937849 8e-06 -20.976019 -2e-06 -5.019968 -25.03356 -4.031882 5e-06 -1e-06 1e-06 -10.634535 -5.68697 -3.565588 10.573279 -17.922955 -3.113901 4e-06 -13.821213 -1e-06 -0.501774 -31.181507 -4.027017 -11.914585 -57.930885 8.131191 -13.982716 -7.150199 -2.875041 13.772735 -8.401493 -3.218245 0.347738 -34.211555 0.771653 -0.963028 -17.733372 2.621021 -1e-06 1e-06 -1e-06 -17.346422 -20.095221 -4.201784 21.757566 -1.638375 3.866426 1e-06 -6.338826 2e-06 -1.697586 -22.591749 -6.194009 0.0 -4e-06 -2e-06 175.647018 -60.791561 5.903234 -11.380361 16.691105 -76.271194 41.386021 1.948206 -1.37981 -27.117935 29.017769 -43.932346 22.182121 -20.375891 49.933319 -16.701815 -16.743532 28.47653 -1e-06 -12.690603 -2e-06 16.544971 -17.094828 2.807263 -0.10592 -1.513854 -4.275883 -5.039041 -5.61287 -2.953557 4e-06 -11.020523 -2e-06 -6.111298 -15.89533 -3.840472 0.0 -1e-06 0.0 -10.283373 -5.680289 -4.341838 11.028299 -11.302404 -2.372635 -1.384269 -14.238581 -6.320121 -0.625437 -26.924191 -3.827601 -6.135165 -50.265415 -2.606066 -13.708527 -7.363476 -3.72094 18.141155 -14.052739 -3.242676 7e-06 -18.78727 -3e-06 -0.429711 -8.456044 2.555504 0.0 0.0 0.0 -15.923536 -20.094482 -5.473586 30.419222 -7.190828 1.735926 3e-06 -8.162925 -1e-06 -1.861903 -22.861469 -6.167942 -0.0 -3e-06 -1e-06 -172.884232 1.991798 -26.664665 5.628828 -0.122701 0.289944 -82.408722 -5.932538 -5.627653 -3.535776 1.622251 2.247811 -0.999998 -1e-06 -0.0 3.159713 -5.698766 3.062209 6.174722 -0.017271 -0.022379 -80.787117 8.214457 -4.121971 -3.397906 0.786076 1.761904 -1.000001 0.0 0.0 
0.0 0.0 0.0 0.0 -0.0 0.0 0.96561 99.52739 2.991382 89.66703 -2.826875 78.886909 -4.738623 -1.001073 -0.824821 -12.866571 -1.154043 -0.408799 9.466597 2.276328 -1.69933 -13.503297 18.462458 -4.520545 -2.610413 1.200428 2.918849 -16.231899 5.442327 -5.769937 6e-06 -0.0 2e-06 -0.159425 -0.064711 0.296233 0.438308 0.118236 0.541583 0.537156 -0.24584 0.025074 -14.135428 -51.090782 16.525133 -15.514821 34.958549 -79.58326 15.786099 -3.541538 -2.264874 -20.790413 27.683771 -44.623554 17.636627 -26.322733 52.411201 -19.46666 -14.395598 29.410393 1e-06 -8.774822 -2e-06 17.64673 -18.6189 5.170903 -0.609777 -1.795655 -3.88933 -4.807091 -11.046812 -2.93785 2e-06 -20.976019 -1e-06 -5.019973 -25.033562 -4.031882 6e-06 0.0 -0.0 -10.634535 -5.686974 -3.565588 10.573271 -17.922951 -3.113898 1e-06 -13.821212 0.0 -0.50178 -31.181505 -4.027017 -11.868721 -57.964256 8.151729 -13.982716 -7.150198 -2.875042 13.772731 -8.401491 -3.218241 0.34773 -34.211555 0.771654 -0.96303 -17.73337 2.62102 -0.0 0.0 0.0 -17.346424 -20.095224 -4.201783 21.757561 -1.638374 3.866431 1e-06 -6.338825 1e-06 -1.697589 -22.591749 -6.19401 -0.0 -4e-06 -3e-06 176.506958 -59.887405 4.771314 -11.908208 15.299275 -76.638809 40.254959 2.286593 -0.619504 -27.699133 28.127745 -45.47361 22.182114 -20.375898 49.933319 -16.701813 -16.74353 28.47653 -1e-06 -12.6906 -0.0 16.66189 -17.184946 2.710503 -0.105919 -1.513858 -4.275881 -5.039041 -5.612871 -2.953557 2e-06 -11.020527 0.0 -6.111298 -15.895336 -3.840468 -0.0 -1e-06 1e-06 -10.283367 -5.680288 -4.34184 11.028291 -11.302406 -2.372632 -1.38427 -14.23858 -6.32012 -0.625441 -26.924191 -3.827601 -6.189372 -50.636997 -2.466301 -13.708523 -7.363478 -3.720939 18.141148 -14.05274 -3.242673 5e-06 -18.787271 -1e-06 -0.429713 -8.456046 2.555504 -0.0 0.0 0.0 -15.923532 -20.094484 -5.473582 30.419207 -7.190823 1.735925 2e-06 -8.162928 -0.0 -1.861905 -22.861473 -6.167941 1e-06 -3e-06 -1e-06 -173.254196 2.24966 -26.669506 5.755024 -0.127724 0.269363 -82.436089 -6.072549 -5.596191 -3.527668 1.58295 2.246373 -0.999998 -2e-06 -0.0 2.782238 -5.969065 2.911488 6.195961 -0.034618 -0.035021 -80.712944 8.531318 -4.326727 -3.359775 0.798659 1.769597 -1.000002 0.0 0.0 
